<?xml version="1.0" encoding="UTF-8" standalone="no" ?>
<!DOCTYPE svg PUBLIC "-//W3C//DTD SVG 1.1//EN" "http://www.w3.org/Graphics/SVG/1.1/DTD/svg11.dtd">
<svg xmlns="http://www.w3.org/2000/svg" xmlns:xlink="http://www.w3.org/1999/xlink" version="1.1" width="1280" height="1024" viewBox="0 0 1280 1024" xml:space="preserve">
<desc>Created with Fabric.js 5.3.0</desc>
<defs>
</defs>
<g transform="matrix(1 0 0 1 640 512)" id="background-logo"  >
<rect style="stroke: none; stroke-width: 0; stroke-dasharray: none; stroke-linecap: butt; stroke-dashoffset: 0; stroke-linejoin: miter; stroke-miterlimit: 4; fill: rgb(255,255,255); fill-rule: nonzero; opacity: 1;"  paint-order="stroke"  x="-640" y="-512" rx="0" ry="0" width="1280" height="1024" />
</g>
<g transform="matrix(2.727404374542103 0 0 2.727404374542103 225.06735212010875 512)" id="logo-logo"  >
<g style=""  paint-order="stroke"   >
		<g transform="matrix(0.0955093166552386 0 0 -0.0955093166552386 21.84731531386433 -9.044939325148022)"  >
<linearGradient id="SVGID_24_997332" gradientUnits="userSpaceOnUse" gradientTransform="matrix(7.20982 0 0 -7.20982 -2251.72 3137.13)"  x1="489.30701" y1="156.14499999999967" x2="371.60999" y2="373.80599999999964">
<stop offset="0%" style="stop-color:rgb(98,162,255);stop-opacity: 1"/>
<stop offset="100%" style="stop-color:rgb(34,0,36);stop-opacity: 1"/>
</linearGradient>
<path style="stroke: none; stroke-width: 1; stroke-dasharray: none; stroke-linecap: butt; stroke-dashoffset: 0; stroke-linejoin: miter; stroke-miterlimit: 10; fill: url(#SVGID_24_997332); fill-rule: nonzero; opacity: 1;"  paint-order="stroke"  transform=" translate(-905.6886998501409, -1188.5210031108277)" d="M 1220.66 2176.99 C 1214.73 2176.79 1208.7900000000002 2176.0099999999998 1202.46 2175.0699999999997 C 1093.5900000000001 2159.2899999999995 925.6600000000001 2037.6899999999996 800.551 1857.9599999999996 C 788.2810000000001 1840.3099999999995 809.922 1856.5599999999995 878.1600000000001 1680.7399999999996 C 881.1290000000001 1673.0799999999995 774.1800000000001 1821.2799999999995 762.23 1803.8199999999995 C 720.039 1742.2199999999996 652.301 1633.3499999999995 607.031 1525.0699999999995 C 601.8399999999999 1512.6099999999994 630.4689999999999 1446.9499999999994 653.9799999999999 1412.9599999999996 C 673.9799999999999 1384.0199999999995 689.6909999999999 1386.3999999999996 685.1209999999999 1376.5599999999995 C 679.5309999999998 1364.6399999999994 597.0309999999998 1433.2399999999996 591.7189999999998 1421.5999999999995 C 552.6989999999998 1336.0499999999995 535.9409999999998 1290.8099999999995 513.1599999999999 1208.4299999999994 C 510.4689999999999 1198.7799999999993 541.9879999999998 1180.9299999999994 569.1799999999998 1137.9999999999993 C 591.0899999999998 1103.4699999999993 608.3979999999998 1040.1499999999994 606.5589999999999 1032.6499999999994 C 604.8009999999998 1025.3799999999994 590.8589999999998 1077.1799999999994 566.8009999999998 1103.5099999999993 C 536.8399999999998 1136.3199999999993 500.1209999999998 1170.1899999999994 498.28099999999984 1161.4799999999993 C 461.41 984.559 468.051 765.148 524.648 710.27 C 492.73 576.281 471.129 404.879 458.051 262.852 C 454.488 177.301 542.148 184.92199999999997 568.711 250.42199999999997 C 574.41 264.44899999999996 570.859 600.699 606.09 652.77 C 613.32 663.512 633.09 668.391 640.078 669.559 C 738.949 685.5 763.5509999999999 710.93 848.441 773 C 879.488 795.699 940.469 849.922 968.672 881.281 C 1017.07 935.0699999999999 1110.98 1098.35 1172.27 1168.1999999999998 C 1209.8799999999999 1211.0499999999997 1042.07 1211.7499999999998 964.8399999999999 1184.0199999999998 C 960.2299999999999 1182.3399999999997 1008.8299999999999 1211.0099999999998 1035.74 1216.5599999999997 C 1091.25 1228.0799999999997 1152.58 1223.7399999999998 1157.42 1232.8499999999997 C 1173.95 1263.9799999999998 1187.0700000000002 1297.3799999999997 1205.78 1328.6699999999996 C 1255.2 1411.1699999999996 1322.58 1560.8099999999995 1315 1696.5599999999995 C 1313.48 1723.7399999999996 1190.51 1654.1699999999994 1164.6100000000001 1655.8099999999995 C 1065.8200000000002 1662.1399999999994 1283.63 1694.6799999999994 1308.7900000000002 1739.1699999999994 C 1384.88 1873.8199999999995 1348.5200000000002 2056.7099999999996 1311.1700000000003 2126.7099999999996 C 1300.7400000000002 2146.24 1285.2700000000002 2159.9199999999996 1267.5800000000004 2168.3499999999995 C 1254.3400000000004 2174.7199999999993 1238.4400000000003 2177.5699999999993 1220.6600000000003 2176.9899999999993 z M 1238.3600000000001 2061.0899999999997 C 1238.3600000000001 2061.0899999999997 1124.96 1927.1399999999996 1111.45 1911.6299999999997 C 1097.89 1896.0899999999997 1085.39 1874.1299999999997 1057.3 1832.5699999999997 C 1001.13 1749.52 912.852 1610.74 793.359 1361.71 C 554.648 864.25 551.949 298.309 551.949 298.309 C 547.2299999999999 194.05900000000003 467.92999999999995 213.699 478.67199999999997 296.398 C 478.67199999999997 296.398 515.629 853.629 755.039 1352.6100000000001 C 874.648 1601.8300000000002 992.73 1759.21 1049.18 1842.65 C 1077.38 1884.3700000000001 1098.16 1910.19 1111.91 1925.97 C 1125.66 1941.75 1132.5 1947.53 1132.5 1947.53 C 1167.73 1985.35 1203.13 2023.27 1238.36 2061.05" stroke-linecap="round" />
</g>
		<g transform="matrix(0.0955093166552386 0 0 -0.0955093166552386 -49.1748455844114 23.31949101999018)"  >
<linearGradient id="SVGID_25_997335" gradientUnits="userSpaceOnUse" gradientTransform="matrix(1 0 0 1 0 600.8934072606023)"  x1="0" y1="0" x2="0" y2="497">
<stop offset="0%" style="stop-color:rgb(245,81,95);stop-opacity: 1"/>
<stop offset="100%" style="stop-color:rgb(159,4,27);stop-opacity: 1"/>
</linearGradient>
<path style="stroke: none; stroke-width: 1; stroke-dasharray: none; stroke-linecap: butt; stroke-dashoffset: 0; stroke-linejoin: miter; stroke-miterlimit: 10; fill: url(#SVGID_25_997335); fill-rule: nonzero; opacity: 1;"  paint-order="stroke"  transform=" translate(-161.61899999999997, -849.4529751539488)" d="M 0 838.352 C 0.078125 827.379 2.46094 817.961 7.14844 810.07 C 11.8398 802.219 18.3984 795.352 26.8008 789.41 L 283.52 607.488 C 294.05899999999997 600.461 303.19899999999996 599.0590000000001 310.97999999999996 603.238 C 318.74999999999994 607.422 322.852 614.988 323.23799999999994 625.969 L 323.23799999999994 703.551 C 322.96899999999994 717.219 319.1019999999999 728.859 311.67999999999995 738.5120000000001 C 304.26199999999994 748.1600000000001 294.87899999999996 756.8280000000001 283.5199999999999 764.488 L 163.4799999999999 849.4490000000001 L 283.5199999999999 934.4100000000001 C 294.8789999999999 942.1020000000001 304.26199999999994 950.738 311.67999999999995 960.3790000000001 C 319.102 970.0310000000002 322.96899999999994 981.6720000000001 323.23799999999994 995.3790000000001 L 323.23799999999994 1072.92 C 322.8519999999999 1083.94 318.74999999999994 1091.52 310.97999999999996 1095.7 C 303.19899999999996 1099.8400000000001 294.05899999999997 1098.43 283.52 1091.4 L 26.8008 909.488 C 18.3984 903.59 11.8398 896.672 7.14844 888.82 C 2.46094 880.93 0.078125 871.52 0 860.539" stroke-linecap="round" />
</g>
		<g transform="matrix(0.0955093166552386 0 0 -0.0955093166552386 21.589762985109758 79.71982906458817)"  >
<linearGradient id="SVGID_25_997336" gradientUnits="userSpaceOnUse" gradientTransform="matrix(1 0 0 1 741.3709999999999 10.005690292124399)"  x1="0" y1="0" x2="0" y2="497">
<stop offset="0%" style="stop-color:rgb(245,81,95);stop-opacity: 1"/>
<stop offset="100%" style="stop-color:rgb(159,4,27);stop-opacity: 1"/>
</linearGradient>
<path style="stroke: none; stroke-width: 1; stroke-dasharray: none; stroke-linecap: butt; stroke-dashoffset: 0; stroke-linejoin: miter; stroke-miterlimit: 10; fill: url(#SVGID_25_997336); fill-rule: nonzero; opacity: 1;"  paint-order="stroke"  transform=" translate(-902.9904999999999, -258.5691781043813)" d="M 1064.61 269.641 C 1064.53 280.62100000000004 1062.1499999999999 290.07 1057.4199999999998 297.922 C 1052.7299999999998 305.809 1046.2099999999998 312.69100000000003 1037.81 318.59000000000003 L 781.09 500.539 C 770.551 507.531 761.371 508.97999999999996 753.59 504.801 C 745.82 500.621 741.7620000000001 493.039 741.371 482.05899999999997 L 741.371 404.48799999999994 C 741.641 390.80899999999997 745.4689999999999 379.12899999999996 752.93 369.48799999999994 C 760.352 359.87899999999996 769.7299999999999 351.19899999999996 781.0899999999999 343.51199999999994 L 901.129 258.551 L 781.09 173.59 C 769.73 165.93 760.352 157.262 752.93 147.609 C 745.469 138 741.641 126.32 741.371 112.648 L 741.371 35.0703 C 741.762 24.101600000000005 745.8199999999999 16.519500000000004 753.59 12.339800000000004 C 761.371 8.160160000000005 770.551 9.601560000000005 781.09 16.601600000000005 L 1037.81 198.551 C 1046.21 204.44899999999998 1052.73 211.32 1057.4199999999998 219.21099999999998 C 1062.1499999999999 227.059 1064.5299999999997 236.48 1064.61 247.488" stroke-linecap="round" />
</g>
</g>
</g>
<g transform="matrix(1.9211538461538462 0 0 1.9211538461538462 839.9731800262578 304.31139637461035)" id="text-logo"  >
<g style=""  paint-order="stroke"   >
		<g transform="matrix(1 0 0 1 -5.684342e-14 0)" id="text-logo-path-0"  >
<path style="stroke: none; stroke-width: 1.685714285714285; stroke-dasharray: none; stroke-linecap: butt; stroke-dashoffset: 0; stroke-linejoin: miter; stroke-miterlimit: 4; fill: rgb(0,0,0); fill-rule: nonzero; opacity: 1;"  paint-order="stroke"  transform=" translate(-197.83, 39.825)" d="M -1.06 -21.59 C -1.06 -7.43 5.07 0 17.35 0 C 29.62 0 35.52 -7.43 35.52 -21.59 L 35.52 -75.28 C 35.52 -77.64 33.63 -79.53 31.39 -79.53 L 28.08 -79.53 C 25.72 -79.53 23.84 -77.64 23.84 -75.28 L 23.84 -21.59 C 23.84 -14.75 21.59 -11.68 17.35 -11.68 C 15.81 -11.68 14.16 -11.8 13.1 -12.86 C 11.68 -14.28 10.74 -16.76 10.74 -21.59 L 10.74 -23.25 C 10.74 -25.49 8.73 -27.38 6.49 -27.38 L 3.19 -27.38 C 0.83 -27.38 -1.06 -25.49 -1.06 -23.25 Z M 79.18 -8.73 C 79.18 -11.09 77.17 -12.98 74.93 -12.98 L 71.51 -12.98 C 69.27 -12.98 67.26 -11.09 67.26 -8.73 L 67.26 -4.25 C 67.26 -1.89 69.27 0 71.51 0 L 74.93 0 C 77.17 0 79.18 -1.89 79.18 -4.25 Z M 154.11 -21.59 C 154.11 -7.43 160.24 0 172.52 0 C 184.79 0 190.69 -7.43 190.69 -21.59 L 190.69 -75.28 C 190.69 -77.64 188.8 -79.53 186.56 -79.53 L 183.25 -79.53 C 180.89 -79.53 179.01 -77.64 179.01 -75.28 L 179.01 -21.59 C 179.01 -14.75 176.76 -11.68 172.52 -11.68 C 170.98 -11.68 169.33 -11.8 168.27 -12.86 C 166.85 -14.28 165.91 -16.76 165.91 -21.59 L 165.91 -23.25 C 165.91 -25.49 163.9 -27.38 161.66 -27.38 L 158.36 -27.38 C 156 -27.38 154.11 -25.49 154.11 -23.25 Z M 234.35 -8.73 C 234.35 -11.09 232.34 -12.98 230.1 -12.98 L 226.68 -12.98 C 224.44 -12.98 222.43 -11.09 222.43 -8.73 L 222.43 -4.25 C 222.43 -1.89 224.44 0 226.68 0 L 230.1 0 C 232.34 0 234.35 -1.89 234.35 -4.25 Z M 322.38 -76.35 C 321.9 -78.12 320.02 -79.65 318.25 -79.65 L 314.94 -79.65 C 311.99 -79.65 310.1 -77.17 310.81 -74.46 L 327.57 -3.42 C 327.92 -1.53 329.81 -0.12 331.7 -0.12 L 334.18 -0.12 C 335.95 -0.12 337.83 -1.53 338.31 -3.42 L 355.06 -74.46 C 355.65 -77.17 353.76 -79.65 350.93 -79.65 L 347.51 -79.65 C 345.74 -79.65 343.73 -78.12 343.38 -76.35 L 332.88 -31.39 Z M 396.72 -8.73 C 396.72 -11.09 394.71 -12.98 392.47 -12.98 L 389.05 -12.98 C 386.8 -12.98 384.8 -11.09 384.8 -8.73 L 384.8 -4.25 C 384.8 -1.89 386.8 0 389.05 0 L 392.47 0 C 394.71 0 396.72 -1.89 396.72 -4.25 Z" stroke-linecap="round" />
</g>
</g>
</g>
<g transform="matrix(1.9211538461538462 0 0 1.9211538461538462 1130.541576232582 304.2491615547779)" id="tagline-bb2e55e3-6ca0-41ea-a660-167ac59a2bf3-logo"  >
<g style=""  paint-order="stroke"   >
		<g transform="matrix(1 0 0 1 0 0)" id="tagline-bb2e55e3-6ca0-41ea-a660-167ac59a2bf3-logo-path-0"  >
<path style="stroke: none; stroke-width: 0; stroke-dasharray: none; stroke-linecap: butt; stroke-dashoffset: 0; stroke-linejoin: miter; stroke-miterlimit: 4; fill: rgb(245,81,95); fill-rule: nonzero; opacity: 1;"  paint-order="stroke"  transform=" translate(-44.80425562940477, 40.5)" d="M 12.24 -77.64 C 11.76 -79.44 9.84 -81 8.04 -81 L 4.68 -81 C 1.68 -81 -0.24 -78.48 0.48 -75.72 L 17.52 -3.48 C 17.88 -1.56 19.8 -0.12 21.72 -0.12 L 24.24 -0.12 C 26.04 -0.12 27.96 -1.56 28.44 -3.48 L 45.48 -75.72 C 46.08 -78.48 44.16 -81 41.28 -81 L 37.8 -81 C 36 -81 33.96 -79.44 33.6 -77.64 L 22.92 -31.92 Z M 89.28 -8.88 C 89.28 -11.28 87.24 -13.2 84.96 -13.2 L 81.48 -13.2 C 79.2 -13.2 77.16 -11.28 77.16 -8.88 L 77.16 -4.32 C 77.16 -1.92 79.2 0 81.48 0 L 84.96 0 C 87.24 0 89.28 -1.92 89.28 -4.32 Z" stroke-linecap="round" />
</g>
</g>
</g>
<g transform="matrix(1.9211538461538462 0 0 1.9211538461538462 824.8446907789161 734.6962942360715)" id="tagline-d88be6ea-228d-4f4f-91d7-2b0defb2c435-logo"  >
<g style=""  paint-order="stroke"   >
		<g transform="matrix(1 0 0 1 0 0)" id="tagline-d88be6ea-228d-4f4f-91d7-2b0defb2c435-logo-path-0"  >
<path style="stroke: none; stroke-width: 0; stroke-dasharray: none; stroke-linecap: butt; stroke-dashoffset: 0; stroke-linejoin: miter; stroke-miterlimit: 4; fill: rgb(0,0,0); fill-rule: nonzero; opacity: 1;"  paint-order="stroke"  transform=" translate(-199.22500000000002, 23.965)" d="M 10.01 0 C 18.53 0 22.51 -4.83 22.51 -14.06 L 22.51 -33.8 C 22.51 -43.03 18.53 -47.85 10.01 -47.85 L 2.77 -47.85 C 1.35 -47.85 0.21 -46.72 0.21 -45.3 L 0.21 -2.56 C 0.21 -1.14 1.35 0 2.77 0 Z M 10.01 -40.83 C 13.77 -40.83 15.34 -38.55 15.34 -33.8 L 15.34 -14.06 C 15.34 -9.3 13.77 -7.03 10.01 -7.03 L 7.24 -7.03 L 7.24 -40.83 Z M 50.84 -47.85 C 49.42 -47.85 48.28 -46.72 48.28 -45.3 L 48.28 -2.56 C 48.28 -1.14 49.42 0 50.84 0 L 66.17 0 C 67.59 0 68.73 -1.14 68.73 -2.56 L 68.73 -4.47 C 68.73 -5.89 67.59 -7.03 66.17 -7.03 L 55.31 -7.03 L 55.31 -20.45 L 64.25 -20.45 C 65.68 -20.45 66.81 -21.58 66.81 -23 L 66.81 -24.92 C 66.81 -26.34 65.68 -27.48 64.25 -27.48 L 55.31 -27.48 L 55.31 -40.83 L 66.17 -40.83 C 67.59 -40.83 68.73 -41.96 68.73 -43.38 L 68.73 -45.3 C 68.73 -46.72 67.59 -47.85 66.17 -47.85 Z M 100.61 -45.94 C 100.32 -47 99.19 -47.93 98.12 -47.93 L 96.13 -47.93 C 94.36 -47.93 93.22 -46.43 93.65 -44.8 L 103.73 -2.06 C 103.94 -0.92 105.08 -0.07 106.22 -0.07 L 107.71 -0.07 C 108.77 -0.07 109.91 -0.92 110.19 -2.06 L 120.27 -44.8 C 120.63 -46.43 119.49 -47.93 117.79 -47.93 L 115.73 -47.93 C 114.67 -47.93 113.46 -47 113.25 -45.94 L 106.93 -18.89 Z M 146.83 -47.85 C 145.41 -47.85 144.27 -46.72 144.27 -45.3 L 144.27 -2.56 C 144.27 -1.14 145.41 0 146.83 0 L 162.16 0 C 163.58 0 164.72 -1.14 164.72 -2.56 L 164.72 -4.47 C 164.72 -5.89 163.58 -7.03 162.16 -7.03 L 151.3 -7.03 L 151.3 -20.45 L 160.25 -20.45 C 161.67 -20.45 162.8 -21.58 162.8 -23 L 162.8 -24.92 C 162.8 -26.34 161.67 -27.48 160.25 -27.48 L 151.3 -27.48 L 151.3 -40.83 L 162.16 -40.83 C 163.58 -40.83 164.72 -41.96 164.72 -43.38 L 164.72 -45.3 C 164.72 -46.72 163.58 -47.85 162.16 -47.85 Z M 209.17 -4.47 C 209.17 -5.89 208.03 -7.03 206.61 -7.03 L 196.03 -7.03 L 196.03 -45.3 C 196.03 -46.72 194.9 -47.85 193.55 -47.85 L 191.49 -47.85 C 190.07 -47.85 188.93 -46.72 188.93 -45.3 L 188.93 -2.56 C 188.93 -1.14 190.07 0 191.49 0 L 206.61 0 C 208.03 0 209.17 -1.14 209.17 -2.56 Z M 233.24 -13.92 C 233.24 -8.31 234.8 -5.04 237 -2.84 C 239.34 -0.57 242.32 0 244.88 0 C 247.51 0 250.49 -0.57 252.83 -2.84 C 255.03 -5.04 256.52 -8.31 256.52 -13.92 L 256.52 -34.01 C 256.52 -43.03 252.69 -47.85 244.88 -47.85 C 237.14 -47.85 233.24 -42.96 233.24 -34.01 Z M 240.34 -34.01 C 240.34 -38.62 241.76 -40.83 244.88 -40.83 C 247.93 -40.83 249.42 -38.77 249.42 -34.01 L 249.42 -13.92 C 249.42 -9.09 247.86 -7.03 244.88 -7.03 C 241.83 -7.03 240.34 -9.23 240.34 -13.92 Z M 292.38 -20.45 C 301.04 -20.45 304.87 -24.99 304.87 -34.15 C 304.87 -43.31 301.04 -47.85 292.38 -47.85 L 284.71 -47.85 C 283.29 -47.85 282.15 -46.72 282.15 -45.3 L 282.15 -2.56 C 282.15 -1.14 283.29 0 284.71 0 L 286.7 0 C 288.05 0 289.18 -1.14 289.18 -2.56 L 289.18 -20.45 Z M 292.38 -40.83 C 296.21 -40.83 297.77 -38.91 297.77 -34.15 C 297.77 -29.54 296.21 -27.48 292.38 -27.48 L 289.18 -27.48 L 289.18 -40.83 Z M 332.28 -47.85 C 330.86 -47.85 329.72 -46.72 329.72 -45.3 L 329.72 -2.56 C 329.72 -1.14 330.86 0 332.28 0 L 347.62 0 C 349.04 0 350.17 -1.14 350.17 -2.56 L 350.17 -4.47 C 350.17 -5.89 349.04 -7.03 347.62 -7.03 L 336.75 -7.03 L 336.75 -20.45 L 345.7 -20.45 C 347.12 -20.45 348.25 -21.58 348.25 -23 L 348.25 -24.92 C 348.25 -26.34 347.12 -27.48 345.7 -27.48 L 336.75 -27.48 L 336.75 -40.83 L 347.62 -40.83 C 349.04 -40.83 350.17 -41.96 350.17 -43.38 L 350.17 -45.3 C 350.17 -46.72 349.04 -47.85 347.62 -47.85 Z M 397.74 -14.48 C 397.74 -18.18 396.75 -21.09 394.69 -23.29 L 395.26 -23.86 C 397.46 -26.06 398.24 -29.61 398.24 -34.01 C 398.24 -43.52 395.19 -47.93 386.45 -47.93 L 377.51 -47.93 C 376.09 -47.93 374.95 -46.79 374.95 -45.37 L 374.95 -2.63 C 374.95 -1.21 376.09 -0.07 377.51 -0.07 L 379.49 -0.07 C 380.84 -0.07 381.98 -1.21 381.98 -2.63 L 381.98 -20.02 L 385.17 -20.02 C 388.65 -20.02 390.64 -18.03 390.64 -14.48 L 390.64 -2.63 C 390.64 -1.21 391.78 -0.07 393.2 -0.07 L 395.19 -0.07 C 396.61 -0.07 397.74 -1.21 397.74 -2.63 Z M 381.98 -40.83 L 386.45 -40.83 C 390.14 -40.83 391.21 -38.84 391.21 -34.01 C 391.21 -29.18 389.15 -27.19 385.17 -27.19 L 381.98 -27.19 Z" stroke-linecap="round" />
</g>
</g>
</g>
<g transform="matrix(1.9211538461538462 0 0 1.9211538461538462 824.5719067053802 552.8805603700762)" id="tagline-f6318839-1bec-48aa-a231-a00215deffa3-logo"  >
<g style=""  paint-order="stroke"   >
		<g transform="matrix(1 0 0 1 0 0)" id="tagline-f6318839-1bec-48aa-a231-a00215deffa3-logo-path-0"  >
<path style="stroke: none; stroke-width: 0; stroke-dasharray: none; stroke-linecap: butt; stroke-dashoffset: 0; stroke-linejoin: miter; stroke-miterlimit: 4; fill: rgb(245,81,95); fill-rule: nonzero; opacity: 1;"  paint-order="stroke"  transform=" translate(-199.405, 23.965)" d="M 0.07 -13.92 C 0.07 -4.62 3.98 -0.07 11.79 -0.07 C 19.31 -0.07 23.5 -4.33 23.5 -12.28 C 23.5 -19.17 18.74 -22.79 14.06 -26.41 L 14.13 -26.41 C 10.65 -29.11 7.17 -31.88 7.17 -35.5 C 7.17 -39.19 8.8 -40.83 11.79 -40.83 C 14.91 -40.83 16.4 -38.7 16.4 -34.01 L 16.4 -33.02 C 16.4 -31.6 17.54 -30.46 18.96 -30.46 L 20.95 -30.46 C 22.37 -30.46 23.5 -31.6 23.5 -33.02 L 23.5 -34.01 C 23.5 -43.03 19.45 -47.93 11.79 -47.93 C 4.26 -47.93 0.07 -43.31 0.07 -35.29 C 0.07 -28.26 4.97 -24.42 9.66 -20.73 L 9.66 -20.8 C 13.14 -18.11 16.4 -15.48 16.4 -12.14 C 16.4 -8.38 14.77 -7.1 11.79 -7.1 C 10.79 -7.1 9.59 -7.24 8.8 -8.02 C 7.81 -8.88 7.17 -10.51 7.17 -13.92 L 7.17 -14.84 C 7.17 -16.26 5.96 -17.4 4.62 -17.4 L 2.63 -17.4 C 1.21 -17.4 0.07 -16.26 0.07 -14.84 Z M 53.75 -13.92 C 53.75 -8.31 55.31 -5.04 57.51 -2.84 C 59.85 -0.57 62.84 0 65.39 0 C 68.02 0 71 -0.57 73.34 -2.84 C 75.54 -5.04 77.03 -8.31 77.03 -13.92 L 77.03 -34.01 C 77.03 -43.03 73.2 -47.85 65.39 -47.85 C 57.65 -47.85 53.75 -42.96 53.75 -34.01 Z M 60.85 -34.01 C 60.85 -38.62 62.27 -40.83 65.39 -40.83 C 68.44 -40.83 69.94 -38.77 69.94 -34.01 L 69.94 -13.92 C 69.94 -9.09 68.37 -7.03 65.39 -7.03 C 62.34 -7.03 60.85 -9.23 60.85 -13.92 Z M 110.26 -47.85 C 108.84 -47.85 107.71 -46.72 107.71 -45.3 L 107.71 -2.56 C 107.71 -1.14 108.84 0 110.26 0 L 112.25 0 C 113.6 0 114.81 -1.14 114.81 -2.56 L 114.81 -20.45 L 122.76 -20.45 C 124.18 -20.45 125.32 -21.58 125.32 -23 L 125.32 -24.92 C 125.32 -26.34 124.18 -27.48 122.76 -27.48 L 114.81 -27.48 L 114.81 -40.83 L 125.6 -40.83 C 127.02 -40.83 128.16 -41.96 128.16 -43.38 L 128.16 -45.3 C 128.16 -46.72 127.02 -47.85 125.6 -47.85 Z M 158.54 -43.38 C 158.54 -41.96 159.68 -40.83 161.1 -40.83 L 166.85 -40.83 L 166.85 -2.63 C 166.85 -1.21 167.99 -0.07 169.41 -0.07 L 171.32 -0.07 C 172.74 -0.07 173.88 -1.21 173.88 -2.63 L 173.88 -40.83 L 179.7 -40.83 C 181.12 -40.83 182.26 -41.96 182.26 -43.38 L 182.26 -45.37 C 182.26 -46.79 181.12 -47.93 179.7 -47.93 L 161.1 -47.93 C 159.68 -47.93 158.54 -46.79 158.54 -45.37 Z M 233.02 -45.8 C 232.81 -46.93 231.67 -47.85 230.54 -47.85 L 228.98 -47.85 C 227.84 -47.85 226.7 -46.93 226.49 -45.8 L 222.8 -24.21 L 219.53 -45.72 C 219.32 -46.93 218.18 -47.85 216.98 -47.85 L 214.92 -47.85 C 213.28 -47.85 212.22 -46.51 212.43 -44.94 L 219.39 -2.13 C 219.6 -0.99 220.67 0 221.88 0 L 223.44 0 C 224.57 0 225.71 -0.92 225.92 -2.06 L 229.76 -24.71 L 233.52 -2.06 C 233.73 -0.92 234.87 0 236 0 L 237.64 0 C 238.84 0 239.98 -0.99 240.19 -2.13 L 247.01 -44.94 C 247.22 -46.51 246.02 -47.85 244.45 -47.85 L 242.39 -47.85 C 241.19 -47.85 239.98 -46.93 239.84 -45.72 L 236.64 -24.35 Z M 289.4 -1.99 C 289.68 -0.92 290.82 0 291.88 0 L 293.94 0 C 295.64 0 296.78 -1.49 296.43 -3.12 L 286.63 -45.87 C 286.41 -46.93 285.21 -47.85 284.14 -47.85 L 282.58 -47.85 C 281.52 -47.85 280.38 -46.93 280.1 -45.87 L 273.63 -18.11 L 270.23 -3.05 C 269.87 -1.42 271.01 0 272.71 0 L 274.77 0 C 275.84 0 276.97 -0.92 277.26 -1.99 L 279.74 -13.06 L 286.98 -13.06 Z M 283.36 -31.45 C 284.71 -25.42 284.57 -23.5 285.35 -20.09 L 281.37 -20.09 Z M 347.55 -14.48 C 347.55 -18.18 346.55 -21.09 344.49 -23.29 L 345.06 -23.86 C 347.26 -26.06 348.04 -29.61 348.04 -34.01 C 348.04 -43.52 344.99 -47.93 336.26 -47.93 L 327.31 -47.93 C 325.89 -47.93 324.75 -46.79 324.75 -45.37 L 324.75 -2.63 C 324.75 -1.21 325.89 -0.07 327.31 -0.07 L 329.3 -0.07 C 330.65 -0.07 331.78 -1.21 331.78 -2.63 L 331.78 -20.02 L 334.98 -20.02 C 338.46 -20.02 340.45 -18.03 340.45 -14.48 L 340.45 -2.63 C 340.45 -1.21 341.58 -0.07 343 -0.07 L 344.99 -0.07 C 346.41 -0.07 347.55 -1.21 347.55 -2.63 Z M 331.78 -40.83 L 336.26 -40.83 C 339.95 -40.83 341.01 -38.84 341.01 -34.01 C 341.01 -29.18 338.95 -27.19 334.98 -27.19 L 331.78 -27.19 Z M 380.84 -47.85 C 379.42 -47.85 378.29 -46.72 378.29 -45.3 L 378.29 -2.56 C 378.29 -1.14 379.42 0 380.84 0 L 396.18 0 C 397.6 0 398.74 -1.14 398.74 -2.56 L 398.74 -4.47 C 398.74 -5.89 397.6 -7.03 396.18 -7.03 L 385.32 -7.03 L 385.32 -20.45 L 394.26 -20.45 C 395.68 -20.45 396.82 -21.58 396.82 -23 L 396.82 -24.92 C 396.82 -26.34 395.68 -27.48 394.26 -27.48 L 385.32 -27.48 L 385.32 -40.83 L 396.18 -40.83 C 397.6 -40.83 398.74 -41.96 398.74 -43.38 L 398.74 -45.3 C 398.74 -46.72 397.6 -47.85 396.18 -47.85 Z" stroke-linecap="round" />
</g>
</g>
</g>
</svg>